<svg width="35" height="32" viewBox="0 0 35 32" fill="none" xmlns="http://www.w3.org/2000/svg">
<path fill-rule="evenodd" clip-rule="evenodd" d="M29.1907 7.56621L21.471 18.3312L16.9416 13.7396C16.6738 13.4681 16.3361 13.3028 15.9751 13.2556C15.4162 13.1612 14.8224 13.3619 14.4265 13.8222L8.98892 20.1844L7.2191 18.3903C6.55541 17.7174 5.48419 17.7174 4.83214 18.3903L4.62254 18.6027C3.95885 19.2755 3.95885 20.3615 4.62254 21.0225L7.62661 24.0679C7.8362 24.2803 8.08072 24.422 8.33688 24.5046C9.02386 24.9177 9.92042 24.7879 10.4677 24.1505L15.8354 17.8945L20.3299 22.4508C20.5395 22.6632 20.7956 22.8167 21.0751 22.8875C21.7155 23.3124 22.5887 23.159 23.0429 22.5216L30.9373 11.5087C31.3448 12.9369 31.566 14.4478 31.566 16.0059C31.566 24.8351 24.4983 32 15.7888 32C7.07936 32 0 24.8351 0 15.9941C0 7.15308 7.06772 0 15.7772 0C21.436 0 26.4079 3.03357 29.1907 7.56621Z" fill="#1F1F1F"/>
<path d="M32.2179 9.06511C33.3047 9.06511 34.1856 8.17204 34.1856 7.07028C34.1856 5.96851 33.3047 5.07544 32.2179 5.07544C31.131 5.07544 30.2501 5.96851 30.2501 7.07028C30.2501 8.17204 31.131 9.06511 32.2179 9.06511Z" fill="#1F1F1F"/>
</svg>
