<svg width="20" height="20" viewBox="0 0 20 20" fill="none" xmlns="http://www.w3.org/2000/svg">
<mask id="mask0_810_5256" style="mask-type:alpha" maskUnits="userSpaceOnUse" x="0" y="0" width="20" height="20">
<rect width="20" height="20" fill="#D9D9D9"/>
</mask>
<g mask="url(#mask0_810_5256)">
<path d="M9.51917 14.6874V15.1601C9.51917 15.2562 9.55528 15.3404 9.6275 15.4126C9.69958 15.4847 9.78368 15.5208 9.87979 15.5208H10.3927C10.4931 15.5208 10.581 15.4831 10.6562 15.4078C10.7315 15.3324 10.7692 15.2445 10.7692 15.1441V14.6874H11.8108C11.9879 14.6874 12.1364 14.6275 12.2562 14.5076C12.376 14.3879 12.4358 14.2395 12.4358 14.0624V11.5624C12.4358 11.3853 12.376 11.2369 12.2562 11.1172C12.1364 10.9973 11.9879 10.9374 11.8108 10.9374H9.1025V9.68742H11.8108C11.9879 9.68742 12.1364 9.62749 12.2562 9.50763C12.376 9.38777 12.4358 9.23929 12.4358 9.06221C12.4358 8.88499 12.376 8.73659 12.2562 8.617C12.1364 8.49728 11.9879 8.43742 11.8108 8.43742H10.7692V7.96471C10.7692 7.86846 10.7331 7.78429 10.661 7.71221C10.589 7.64013 10.5049 7.60408 10.4088 7.60408H9.89583C9.79542 7.60408 9.70757 7.64172 9.63229 7.717C9.55688 7.79242 9.51917 7.88034 9.51917 7.98075V8.43742H8.4775C8.30042 8.43742 8.15201 8.49735 8.03229 8.61721C7.91243 8.73693 7.8525 8.88533 7.8525 9.06242V11.5624C7.8525 11.7395 7.91243 11.8879 8.03229 12.0076C8.15201 12.1275 8.30042 12.1874 8.4775 12.1874H11.1858V13.4374H8.4775C8.30042 13.4374 8.15201 13.4973 8.03229 13.6172C7.91243 13.7371 7.8525 13.8855 7.8525 14.0626C7.8525 14.2399 7.91243 14.3883 8.03229 14.5078C8.15201 14.6276 8.30042 14.6874 8.4775 14.6874H9.51917ZM5.25646 17.9166C4.83549 17.9166 4.47917 17.7708 4.1875 17.4791C3.89583 17.1874 3.75 16.8311 3.75 16.4101V3.58971C3.75 3.16874 3.89583 2.81242 4.1875 2.52075C4.47917 2.22909 4.83549 2.08325 5.25646 2.08325H12.3877L16.25 5.94554V16.4101C16.25 16.8311 16.1042 17.1874 15.8125 17.4791C15.5208 17.7708 15.1645 17.9166 14.7435 17.9166H5.25646ZM5.25646 16.6666H14.7435C14.8077 16.6666 14.8665 16.6398 14.9198 16.5864C14.9733 16.533 15 16.4743 15 16.4101V6.57034H12.516C12.3026 6.57034 12.1237 6.49818 11.9794 6.35388C11.8351 6.20957 11.7629 6.03068 11.7629 5.81721V3.33325H5.25646C5.19229 3.33325 5.13354 3.35999 5.08021 3.41346C5.02674 3.46679 5 3.52554 5 3.58971V16.4101C5 16.4743 5.02674 16.533 5.08021 16.5864C5.13354 16.6398 5.19229 16.6666 5.25646 16.6666Z" fill="#1C1B1F"/>
</g>
</svg>
