<svg width="16" height="16" viewBox="0 0 16 16" fill="none" xmlns="http://www.w3.org/2000/svg">
<mask id="mask0_454_8077" style="mask-type:alpha" maskUnits="userSpaceOnUse" x="0" y="0" width="16" height="16">
<rect x="0.399994" y="0.399902" width="15.2" height="15.2" fill="#D9D9D9"/>
</mask>
<g mask="url(#mask0_454_8077)">
<path d="M1.89813 12.8595V3.43266C1.89813 3.3364 1.91819 3.24979 1.9583 3.17284C1.99852 3.09589 2.05678 3.02781 2.1331 2.96859L4.56906 1.20254C4.67187 1.13034 4.78402 1.09424 4.90552 1.09424C5.02712 1.09424 5.13985 1.13034 5.24372 1.20254L7.67967 2.96859C7.75599 3.02781 7.81426 3.09589 7.85447 3.17284C7.89459 3.24979 7.91464 3.3364 7.91464 3.43266V4.88205H13.5295C13.6917 4.88205 13.8277 4.93688 13.9373 5.04656C14.047 5.15633 14.1018 5.29229 14.1018 5.45442V12.8595C14.1018 13.0218 14.047 13.1577 13.9373 13.2674C13.8277 13.3772 13.6917 13.432 13.5295 13.432H2.47051C2.30827 13.432 2.17231 13.3772 2.06264 13.2674C1.95297 13.1577 1.89813 13.0218 1.89813 12.8595ZM2.84797 12.482H4.43147V10.8987H2.84797V12.482ZM2.84797 9.94871H4.43147V8.36538H2.84797V9.94871ZM2.84797 7.41538H4.43147V5.83205H2.84797V7.41538ZM2.84797 4.88205H4.43147V3.29871H2.84797V4.88205ZM5.38131 4.88205H6.9648V3.29871H5.38131V4.88205ZM5.38131 12.482H13.152V5.83205H5.38131V12.482ZM9.77822 7.41538H11.1666C11.3012 7.41538 11.414 7.46093 11.505 7.55202C11.5961 7.64301 11.6416 7.75585 11.6416 7.89054C11.6416 8.02523 11.5961 8.13801 11.505 8.2289C11.414 8.31989 11.3012 8.36538 11.1666 8.36538H9.77822C9.64364 8.36538 9.5308 8.31983 9.43971 8.22874C9.34872 8.13765 9.30322 8.02475 9.30322 7.89006C9.30322 7.75548 9.34872 7.64269 9.43971 7.55171C9.5308 7.46082 9.64364 7.41538 9.77822 7.41538ZM9.77822 9.94871H11.1666C11.3012 9.94871 11.414 9.99426 11.505 10.0854C11.5961 10.1763 11.6416 10.2892 11.6416 10.4239C11.6416 10.5586 11.5961 10.6713 11.505 10.7622C11.414 10.8532 11.3012 10.8987 11.1666 10.8987H9.77822C9.64364 10.8987 9.5308 10.8532 9.43971 10.7621C9.34872 10.671 9.30322 10.5581 9.30322 10.4234C9.30322 10.2888 9.34872 10.176 9.43971 10.085C9.5308 9.99416 9.64364 9.94871 9.77822 9.94871ZM7.91464 7.89054C7.91464 8.02523 7.86915 8.13801 7.77816 8.2289C7.68706 8.31989 7.57417 8.36538 7.43948 8.36538C7.3049 8.36538 7.19211 8.31983 7.10112 8.22874C7.01024 8.13765 6.9648 8.02475 6.9648 7.89006C6.9648 7.75548 7.01035 7.64269 7.10144 7.55171C7.19243 7.46082 7.30527 7.41538 7.43996 7.41538C7.57454 7.41538 7.68733 7.46093 7.77832 7.55202C7.8692 7.64301 7.91464 7.75585 7.91464 7.89054ZM7.43948 10.8987C7.3049 10.8987 7.19211 10.8532 7.10112 10.7621C7.01024 10.671 6.9648 10.5581 6.9648 10.4234C6.9648 10.2888 7.01035 10.176 7.10144 10.085C7.19243 9.99416 7.30527 9.94871 7.43996 9.94871C7.57454 9.94871 7.68733 9.99426 7.77832 10.0854C7.8692 10.1763 7.91464 10.2892 7.91464 10.4239C7.91464 10.5586 7.86915 10.6713 7.77816 10.7622C7.68706 10.8532 7.57417 10.8987 7.43948 10.8987Z" fill="#0266F4"/>
</g>
</svg>
